<?xml version="1.0" standalone="no"?>
<!DOCTYPE svg PUBLIC "-//W3C//DTD SVG 20010904//EN"
 "http://www.w3.org/TR/2001/REC-SVG-20010904/DTD/svg10.dtd">
<svg version="1.0" xmlns="http://www.w3.org/2000/svg"
 width="500.000000pt" height="500.000000pt" viewBox="0 0 500.000000 500.000000"
 preserveAspectRatio="xMidYMid meet">
<metadata>
Created by potrace 1.14, written by Peter Selinger 2001-2017
</metadata>
<g transform="translate(0.000000,500.000000) scale(0.100000,-0.100000)"
fill="#000000" stroke="none">
<path d="M3705 3560 l-249 -250 -74 73 c-82 80 -81 80 -137 123 -146 112 -347
194 -560 229 -78 13 -343 14 -375 1 -8 -3 -26 -7 -40 -10 -55 -10 -118 -26
-167 -45 -29 -11 -53 -17 -53 -15 0 11 -194 -94 -265 -144 -346 -240 -541
-627 -530 -1047 4 -138 6 -160 32 -270 41 -178 157 -401 280 -535 17 -19 40
-44 50 -55 63 -70 189 -162 307 -224 178 -93 371 -139 581 -139 262 1 508 79
716 228 478 341 655 950 435 1495 l-35 86 270 270 c174 174 267 274 262 282
-10 16 -187 197 -193 197 -3 0 -117 -112 -255 -250z m-1040 -332 c99 -24 206
-73 276 -126 68 -51 152 -137 148 -151 -4 -9 -595 -608 -647 -655 -21 -19 -22
-18 -312 273 l-291 291 18 27 c111 177 298 307 498 347 98 20 215 18 310 -6z
m573 -610 c13 -63 7 -223 -13 -298 -55 -219 -213 -407 -419 -500 -99 -45 -166
-60 -287 -64 -192 -7 -368 58 -520 190 -144 127 -231 304 -246 504 -6 80 -5
84 11 71 10 -8 161 -158 337 -334 244 -245 322 -317 331 -309 7 6 186 184 398
395 212 212 388 385 392 386 4 1 11 -18 16 -41z"/>
</g>
</svg>
