<?xml version="1.0" standalone="no"?>
<!DOCTYPE svg PUBLIC "-//W3C//DTD SVG 20010904//EN"
 "http://www.w3.org/TR/2001/REC-SVG-20010904/DTD/svg10.dtd">
<svg version="1.0" xmlns="http://www.w3.org/2000/svg"
 width="500.000000pt" height="500.000000pt" viewBox="0 0 500.000000 500.000000"
 preserveAspectRatio="xMidYMid meet">

<g transform="translate(0.000000,500.000000) scale(0.100000,-0.100000)"
fill="#000000" stroke="none">
<path d="M3704 3559 l-250 -250 -70 68 c-247 243 -544 365 -884 365 -651 0
-1183 -487 -1239 -1136 -20 -228 22 -451 125 -659 148 -299 380 -504 704 -622
214 -79 490 -90 723 -31 291 75 562 268 728 521 224 339 266 778 111 1158
l-36 88 272 272 272 272 -103 103 -102 102 -251 -251z m-1028 -329 c148 -38
296 -126 383 -228 l39 -46 -330 -338 c-182 -186 -336 -338 -342 -338 -6 0
-141 130 -300 289 -327 328 -303 284 -218 394 93 122 254 226 412 267 103 26
252 26 356 0z m569 -723 c0 -121 -3 -153 -23 -217 -99 -315 -359 -521 -682
-537 -172 -9 -308 27 -454 121 -201 129 -336 371 -336 604 l0 67 338 -338 337
-337 400 400 c273 273 403 396 410 389 6 -6 10 -68 10 -152z"/>
</g>
</svg>
